<?xml version="1.0" encoding="utf-8"?>
<!-- Generator: Adobe Illustrator 16.0.4, SVG Export Plug-In . SVG Version: 6.00 Build 0)  -->
<!DOCTYPE svg PUBLIC "-//W3C//DTD SVG 1.1//EN" "http://www.w3.org/Graphics/SVG/1.1/DTD/svg11.dtd">
<svg version="1.1" id="Layer_1" xmlns="http://www.w3.org/2000/svg" xmlns:xlink="http://www.w3.org/1999/xlink" x="0px" y="0px"
	 width="531.128px" height="70.178px" viewBox="0 0 531.128 70.178" enable-background="new 0 0 531.128 70.178"
	 xml:space="preserve">
<path fill="#F2F2F2" d="M-454.871-41.448c-48.849,0-88.448,39.6-88.448,88.448c0,48.848,39.6,88.448,88.448,88.448
	c48.848,0,88.448-39.601,88.448-88.448C-366.423-1.848-406.023-41.448-454.871-41.448z M-516.872,85v-4h126v4H-516.872z"/>
<g>
	<text transform="matrix(1 0 0 1 -519.416 70.176)" fill="#333333" font-family="'HelveticaNeue-Thin'" font-size="85.6828">R</text>
	<text transform="matrix(1 0 0 1 -462.3438 70.178)" fill="#666666" font-family="'HelveticaNeue-ThinItalic'" font-size="38.3507">a</text>
	<text transform="matrix(1 0 0 1 -444.3066 70.178)" fill="#333333" font-family="'HelveticaNeue-Thin'" font-size="85.6828">S</text>
</g>
<g>
	<path fill="#333333" d="M-515.227,227.578v-39.37h20.276c3.76,0,6.633,0.322,8.621,0.967c1.988,0.645,3.589,1.84,4.807,3.585
		c1.217,1.746,1.826,3.872,1.826,6.379c0,2.185-0.466,4.068-1.396,5.652c-0.932,1.585-2.212,2.869-3.842,3.854
		c-1.039,0.627-2.463,1.146-4.272,1.56c1.449,0.482,2.504,0.968,3.167,1.451c0.447,0.321,1.095,1.013,1.945,2.068
		c0.85,1.059,1.418,1.873,1.704,2.446l5.892,11.408h-13.746l-6.503-12.031c-0.824-1.558-1.558-2.569-2.202-3.035
		c-0.877-0.608-1.871-0.912-2.981-0.912h-1.074v15.979L-515.227,227.578L-515.227,227.578z M-503.008,204.16h5.129
		c0.555,0,1.629-0.18,3.223-0.537c0.806-0.161,1.464-0.573,1.974-1.235c0.511-0.662,0.766-1.423,0.766-2.282
		c0-1.271-0.403-2.247-1.208-2.928s-2.319-1.021-4.539-1.021h-5.344L-503.008,204.16L-503.008,204.16z"/>
	<path fill="#333333" d="M-472.634,188.208h32.603v8.404h-20.41v6.259h18.933v8.028h-18.933v7.763h21.001v8.916h-33.193
		L-472.634,188.208L-472.634,188.208z"/>
	<path fill="#333333" d="M-432.808,188.208h11.36l14.824,21.781v-21.781h11.467v39.37h-11.467l-14.744-21.617v21.617h-11.44V188.208
		z"/>
	<path fill="#333333" d="M-389.839,188.208h36.98v9.722h-12.407v29.648h-12.165V197.93h-12.408V188.208z"/>
</g>
<g>
	<path fill="#333333" d="M-516.302,311.975l11.575-0.725c0.25,1.88,0.761,3.312,1.531,4.297c1.253,1.594,3.043,2.391,5.371,2.391
		c1.736,0,3.075-0.406,4.015-1.223c0.939-0.813,1.41-1.759,1.41-2.833c0-1.021-0.448-1.934-1.343-2.739
		c-0.896-0.806-2.972-1.565-6.23-2.282c-5.335-1.199-9.14-2.793-11.414-4.779c-2.292-1.988-3.438-4.521-3.438-7.602
		c0-2.022,0.586-3.935,1.759-5.732c1.173-1.801,2.937-3.214,5.291-4.243s5.581-1.544,9.681-1.544c5.031,0,8.867,0.936,11.507,2.806
		c2.641,1.871,4.212,4.848,4.713,8.93l-11.467,0.672c-0.305-1.771-0.944-3.062-1.92-3.867c-0.977-0.806-2.323-1.208-4.042-1.208
		c-1.415,0-2.48,0.3-3.196,0.898c-0.716,0.602-1.074,1.33-1.074,2.189c0,0.626,0.295,1.189,0.886,1.69
		c0.573,0.521,1.934,1.004,4.082,1.45c5.317,1.146,9.126,2.307,11.427,3.479c2.301,1.173,3.975,2.628,5.022,4.364
		c1.047,1.735,1.571,3.679,1.571,5.826c0,2.525-0.698,4.854-2.095,6.982c-1.396,2.131-3.348,3.747-5.854,4.848
		c-2.507,1.103-5.667,1.652-9.48,1.652c-6.696,0-11.333-1.289-13.911-3.867C-514.503,319.227-515.962,315.949-516.302,311.975z"/>
	<path fill="#333333" d="M-477.227,285.63h36.979v9.722h-12.407V325h-12.166v-29.648h-12.407L-477.227,285.63L-477.227,285.63z"/>
	<path fill="#333333" d="M-409.122,285.63h12.139v23.456c0,2.326-0.362,4.522-1.088,6.589c-0.725,2.066-1.862,3.874-3.41,5.421
		c-1.549,1.548-3.174,2.636-4.875,3.262c-2.363,0.876-5.2,1.314-8.513,1.314c-1.916,0-4.006-0.135-6.271-0.403
		c-2.266-0.269-4.158-0.8-5.68-1.597c-1.522-0.796-2.914-1.928-4.177-3.395c-1.262-1.468-2.126-2.979-2.591-4.536
		c-0.752-2.504-1.129-4.724-1.129-6.655V285.63h12.139v24.015c0,2.146,0.596,3.824,1.786,5.031c1.19,1.208,2.843,1.812,4.955,1.812
		c2.095,0,3.737-0.595,4.928-1.784c1.19-1.189,1.786-2.875,1.786-5.059L-409.122,285.63L-409.122,285.63z"/>
	<path fill="#333333" d="M-388.765,285.63h18.074c3.562,0,6.44,0.482,8.634,1.45c2.192,0.967,4.006,2.354,5.438,4.162
		c1.432,1.809,2.471,3.911,3.115,6.312s0.967,4.941,0.967,7.627c0,4.207-0.479,7.472-1.438,9.789
		c-0.959,2.318-2.287,4.262-3.988,5.827c-1.7,1.567-3.526,2.609-5.479,3.129c-2.667,0.716-5.084,1.074-7.25,1.074h-18.074
		L-388.765,285.63L-388.765,285.63z M-376.599,294.546v21.511h2.98c2.542,0,4.351-0.28,5.425-0.846
		c1.074-0.562,1.916-1.548,2.524-2.954c0.608-1.405,0.913-3.684,0.913-6.835c0-4.171-0.681-7.026-2.041-8.566
		c-1.36-1.54-3.616-2.31-6.768-2.31H-376.599L-376.599,294.546z"/>
	<path fill="#333333" d="M-346.171,285.63h32.602v8.405h-20.41v6.258h18.934v8.029h-18.934v7.762h21.002V325h-33.193
		L-346.171,285.63L-346.171,285.63z"/>
	<path fill="#333333" d="M-306.345,285.63h11.359l14.824,21.781V285.63h11.467V325h-11.467l-14.744-21.617V325h-11.439
		L-306.345,285.63L-306.345,285.63z"/>
	<path fill="#333333" d="M-263.377,285.63h36.98v9.722h-12.407V325h-12.165v-29.648h-12.408V285.63z"/>
</g>
<g>
	<polygon fill="#333333" points="-504.333,263 -510.487,276 -481.101,276 -487.315,263 	"/>
	<polygon fill="#333333" points="-502.528,259 -489.022,259 -495.758,244.7 	"/>
	<polygon fill="#333333" points="-514.872,236 -514.872,275.959 -496.227,236 -495.26,236 -476.837,276 -226.872,276 -226.872,236 	
		"/>
</g>
<text transform="matrix(1 0 0 1 -519.416 464.5784)" fill="#333333" font-family="'Arial-Black'" font-size="55">RENT</text>
<text transform="matrix(1 0 0 1 -428.3066 565.0002)" fill="#333333" font-family="'Arial-Black'" font-size="55">STUDENT</text>
<text transform="matrix(1 0 0 1 -389.8721 513.0002)" fill="#333333" font-family="'CenturyGothic'" font-size="55">A</text>
<g>
	<path fill="#D4145A" d="M-1005.227,234.578v-39.37h20.275c3.76,0,6.634,0.322,8.621,0.967c1.987,0.645,3.59,1.84,4.807,3.585
		c1.218,1.746,1.826,3.872,1.826,6.379c0,2.185-0.465,4.068-1.396,5.652c-0.932,1.585-2.213,2.869-3.843,3.854
		c-1.039,0.627-2.464,1.146-4.272,1.56c1.449,0.482,2.504,0.968,3.167,1.451c0.447,0.321,1.095,1.013,1.945,2.068
		c0.851,1.059,1.418,1.873,1.704,2.446l5.892,11.408h-13.746l-6.503-12.031c-0.824-1.558-1.558-2.569-2.202-3.035
		c-0.878-0.608-1.871-0.912-2.981-0.912h-1.074v15.979L-1005.227,234.578L-1005.227,234.578z M-993.008,211.16h5.13
		c0.555,0,1.629-0.18,3.223-0.537c0.807-0.161,1.464-0.573,1.975-1.235c0.511-0.662,0.766-1.423,0.766-2.282
		c0-1.271-0.402-2.247-1.209-2.928c-0.805-0.681-2.318-1.021-4.538-1.021h-5.345L-993.008,211.16L-993.008,211.16z"/>
	<path fill="#D4145A" d="M-962.634,195.208h32.603v8.404h-20.41v6.259h18.934v8.028h-18.934v7.763h21.001v8.916h-33.193
		L-962.634,195.208L-962.634,195.208z"/>
	<path fill="#D4145A" d="M-922.807,195.208h11.359l14.824,21.781v-21.781h11.467v39.37h-11.467l-14.744-21.617v21.617h-11.439
		V195.208L-922.807,195.208z"/>
	<path fill="#D4145A" d="M-879.839,195.208h36.98v9.722h-12.407v29.648h-12.165V204.93h-12.408V195.208z"/>
</g>
<g>
	<path fill="#D4145A" d="M-916.399,316.975l11.574-0.725c0.25,1.88,0.761,3.312,1.531,4.297c1.252,1.594,3.043,2.391,5.371,2.391
		c1.736,0,3.074-0.406,4.015-1.223c0.939-0.813,1.409-1.759,1.409-2.833c0-1.021-0.447-1.934-1.342-2.739
		c-0.896-0.806-2.973-1.565-6.23-2.282c-5.336-1.199-9.141-2.793-11.414-4.779c-2.292-1.988-3.438-4.521-3.438-7.601
		c0-2.023,0.586-3.936,1.759-5.733c1.173-1.801,2.937-3.214,5.291-4.243s5.581-1.544,9.681-1.544c5.031,0,8.867,0.936,11.508,2.806
		c2.641,1.871,4.212,4.849,4.713,8.931l-11.467,0.671c-0.305-1.771-0.944-3.062-1.92-3.867c-0.977-0.805-2.323-1.208-4.042-1.208
		c-1.415,0-2.479,0.3-3.196,0.899c-0.716,0.601-1.074,1.329-1.074,2.188c0,0.626,0.296,1.19,0.887,1.691
		c0.572,0.52,1.934,1.003,4.082,1.449c5.317,1.146,9.127,2.307,11.427,3.479c2.301,1.173,3.975,2.628,5.022,4.364
		c1.047,1.735,1.57,3.679,1.57,5.826c0,2.525-0.697,4.854-2.094,6.982c-1.396,2.131-3.349,3.747-5.855,4.848
		c-2.506,1.103-5.666,1.652-9.479,1.652c-6.696,0-11.333-1.289-13.911-3.867S-916.059,320.949-916.399,316.975z"/>
	<path fill="#D4145A" d="M-877.325,290.63h36.979v9.722h-12.407V330h-12.165v-29.648h-12.407V290.63L-877.325,290.63z"/>
	<path fill="#D4145A" d="M-809.219,290.63h12.139v23.456c0,2.326-0.362,4.522-1.088,6.589c-0.725,2.066-1.862,3.874-3.41,5.421
		c-1.549,1.548-3.174,2.636-4.875,3.262c-2.363,0.876-5.2,1.314-8.513,1.314c-1.916,0-4.006-0.135-6.271-0.403
		c-2.266-0.269-4.158-0.8-5.68-1.597c-1.522-0.796-2.914-1.928-4.177-3.395c-1.262-1.468-2.126-2.979-2.591-4.536
		c-0.752-2.504-1.129-4.724-1.129-6.655V290.63h12.139v24.015c0,2.146,0.596,3.824,1.786,5.031c1.19,1.208,2.843,1.812,4.955,1.812
		c2.095,0,3.737-0.595,4.928-1.784c1.19-1.189,1.786-2.875,1.786-5.059V290.63H-809.219z"/>
	<path fill="#D4145A" d="M-788.863,290.63h18.074c3.562,0,6.44,0.482,8.634,1.45c2.192,0.967,4.006,2.354,5.438,4.162
		c1.432,1.809,2.471,3.912,3.115,6.312c0.644,2.4,0.967,4.941,0.967,7.627c0,4.207-0.479,7.472-1.438,9.789
		c-0.959,2.318-2.287,4.262-3.988,5.827c-1.7,1.567-3.526,2.609-5.479,3.129c-2.667,0.716-5.084,1.074-7.25,1.074h-18.074v-39.37
		H-788.863z M-776.697,299.546v21.511h2.98c2.542,0,4.351-0.28,5.425-0.846c1.074-0.562,1.916-1.548,2.524-2.954
		c0.608-1.405,0.913-3.684,0.913-6.835c0-4.171-0.681-7.026-2.041-8.566c-1.36-1.539-3.616-2.31-6.768-2.31H-776.697
		L-776.697,299.546z"/>
	<path fill="#D4145A" d="M-746.269,290.63h32.602v8.405h-20.41v6.258h18.934v8.029h-18.934v7.762h21.002V330h-33.193
		L-746.269,290.63L-746.269,290.63z"/>
	<path fill="#D4145A" d="M-706.443,290.63h11.359l14.824,21.781V290.63h11.467V330h-11.467l-14.744-21.617V330h-11.439V290.63
		L-706.443,290.63z"/>
	<path fill="#D4145A" d="M-663.475,290.63h36.98v9.722h-12.407V330h-12.165v-29.648h-12.408V290.63z"/>
</g>
<g>
	<polygon fill="#D4145A" points="-867.998,270 -874.151,283 -844.765,283 -850.979,270 	"/>
	<polygon fill="#D4145A" points="-866.192,266 -852.686,266 -859.422,251.7 	"/>
	<polygon fill="#D4145A" points="-1004.872,243 -1004.872,283 -878.555,283 -859.891,243 -858.924,243 -840.501,283 -626.872,283 
		-626.872,243 	"/>
</g>
<g>
	<path fill="#4D4D4D" d="M0,54.774v-39.37h20.276c3.76,0,6.633,0.322,8.621,0.967s3.589,1.84,4.807,3.585
		c1.217,1.746,1.826,3.872,1.826,6.379c0,2.185-0.466,4.068-1.397,5.652c-0.932,1.585-2.212,2.869-3.842,3.854
		c-1.039,0.627-2.463,1.146-4.272,1.56c1.449,0.482,2.504,0.968,3.167,1.451c0.447,0.321,1.095,1.013,1.945,2.068
		c0.85,1.059,1.418,1.873,1.704,2.446l5.892,11.408H24.979l-6.503-12.031c-0.824-1.558-1.558-2.569-2.202-3.035
		c-0.877-0.608-1.871-0.912-2.981-0.912h-1.074v15.979L0,54.774L0,54.774z M12.219,31.356h5.129c0.555,0,1.629-0.18,3.223-0.537
		c0.806-0.161,1.464-0.573,1.974-1.235c0.511-0.662,0.766-1.423,0.766-2.282c0-1.271-0.403-2.247-1.208-2.928
		s-2.319-1.021-4.539-1.021H12.22L12.219,31.356L12.219,31.356z"/>
	<path fill="#4D4D4D" d="M42.593,15.404h32.603v8.404h-20.41v6.259h18.933v8.028H54.785v7.763h21.001v8.916H42.593V15.404z"/>
	<path fill="#4D4D4D" d="M82.419,15.404h11.36l14.824,21.781V15.404h11.467v39.37h-11.467L93.86,33.156v21.617H82.42L82.419,15.404
		L82.419,15.404z"/>
	<path fill="#4D4D4D" d="M125.388,15.404h36.98v9.722h-12.407v29.648h-12.165V25.125h-12.408V15.404z"/>
</g>
<g>
	<path fill="#4D4D4D" d="M197.295,0l-6.644,14.018h0.926L210,54.069h-4.264l-6.214-13.017h-17.019l-6.153,13.017h-4.347
		l-7.751,16.021h366.875V0H197.295z M252.844,47.811c-1.396,2.134-3.348,3.752-5.854,4.854c-2.507,1.104-5.667,1.654-9.48,1.654
		c-6.696,0-11.333-1.291-13.911-3.872c-2.578-2.582-4.038-5.863-4.377-9.843l11.575-0.726c0.25,1.882,0.761,3.315,1.531,4.302
		c1.253,1.597,3.043,2.395,5.371,2.395c1.736,0,3.075-0.408,4.015-1.225c0.939-0.815,1.41-1.762,1.41-2.837
		c0-1.023-0.448-1.938-1.343-2.742c-0.896-0.807-2.972-1.567-6.23-2.286c-5.335-1.2-9.14-2.797-11.414-4.785
		c-2.292-1.991-3.438-4.527-3.438-7.611c0-2.025,0.586-3.939,1.759-5.74c1.173-1.803,2.937-3.219,5.291-4.249
		c2.354-1.031,5.581-1.546,9.681-1.546c5.031,0,8.867,0.937,11.507,2.81c2.641,1.873,4.212,4.854,4.713,8.94l-11.467,0.672
		c-0.305-1.773-0.944-3.065-1.92-3.871c-0.976-0.807-2.323-1.209-4.042-1.209c-1.415,0-2.48,0.3-3.196,0.899
		c-0.716,0.603-1.074,1.332-1.074,2.192c0,0.627,0.295,1.191,0.886,1.693c0.573,0.521,1.934,1.004,4.082,1.452
		c5.317,1.147,9.126,2.309,11.427,3.482c2.301,1.174,3.975,2.631,5.022,4.37c1.047,1.737,1.571,3.684,1.571,5.834
		C254.938,43.348,254.24,45.678,252.844,47.811z M295.128,24.031h-12v30.038h-12V24.031h-13V14.018h37V24.031z M338.128,37.712
		c0,2.33-0.156,4.527-0.883,6.598c-0.726,2.067-1.76,3.878-3.308,5.427c-1.549,1.551-3.123,2.639-4.824,3.266
		c-2.362,0.877-5.174,1.317-8.485,1.317c-1.916,0-3.994-0.136-6.258-0.404c-2.267-0.27-4.152-0.801-5.675-1.599
		c-1.522-0.797-2.909-1.931-4.173-3.4c-1.262-1.469-1.964-2.981-2.43-4.542c-0.752-2.506-0.967-4.729-0.967-6.662V14.018h12v24.253
		c0,2.15,0.504,3.83,1.695,5.038c1.189,1.21,2.797,1.812,4.909,1.812c2.095,0,3.578-0.594,4.769-1.784
		c1.19-1.191,1.627-2.879,1.627-5.066V14.018h12v23.694H338.128z M381.548,43.604c-0.959,2.321-2.287,4.266-3.988,5.834
		c-1.7,1.569-3.525,2.823-5.479,3.344c-2.668,0.718-5.084,1.287-7.25,1.287h-17.703V14.018h17.703c3.562,0,6.439,0.588,8.633,1.556
		c2.193,0.968,4.007,2.41,5.438,4.219c1.433,1.812,2.472,3.944,3.115,6.345c0.644,2.402,0.967,4.96,0.967,7.65
		C382.986,38.001,382.505,41.281,381.548,43.604z M422.128,54.069h-33V14.018h33v9.012h-21v6.007h19v8.01h-19v8.01h21V54.069z
		 M467.128,54.069h-11.768l-15.232-22.067v22.067h-11V14.018h11.408l14.592,22.018V14.018h12V54.069z M509.128,24.031h-12v30.038
		h-13V24.031h-12V14.018h37V24.031z"/>
	<path fill="#4D4D4D" d="M361.958,23.03h-2.83v22.027h2.775c2.542,0,4.352-0.464,5.426-1.029c1.073-0.563,1.916-1.64,2.523-3.049
		c0.607-1.407,0.913-3.733,0.913-6.888c0-4.177-0.681-7.121-2.041-8.663S365.109,23.03,361.958,23.03z"/>
	<polygon fill="#4D4D4D" points="184.311,37.047 197.816,37.047 191.08,22.729 	"/>
</g>
<g>
	<polygon fill="#377BA5" points="197.295,90.178 190.652,104.178 191.578,104.178 210.001,144.178 205.737,144.178 199.523,131.178 
		182.505,131.178 176.352,144.178 172.005,144.178 164.253,160.178 531.128,160.178 531.128,90.178 	"/>
	<polygon fill="#377BA5" points="184.311,127.178 197.816,127.178 191.08,112.878 	"/>
</g>
<g>
	<path fill="#377BA5" d="M0,143.756v-39.37h20.276c3.76,0,6.633,0.322,8.621,0.967s3.589,1.84,4.807,3.585
		c1.217,1.746,1.826,3.872,1.826,6.379c0,2.185-0.466,4.068-1.397,5.652c-0.932,1.585-2.212,2.869-3.842,3.854
		c-1.039,0.627-2.463,1.146-4.272,1.56c1.449,0.482,2.504,0.968,3.167,1.45c0.447,0.322,1.095,1.014,1.945,2.069
		c0.85,1.059,1.418,1.873,1.704,2.446l5.892,11.408H24.979l-6.503-12.031c-0.824-1.558-1.558-2.569-2.202-3.035
		c-0.877-0.608-1.871-0.912-2.981-0.912h-1.074v15.979L0,143.756L0,143.756z M12.219,120.338h5.129c0.555,0,1.629-0.18,3.223-0.537
		c0.806-0.161,1.464-0.573,1.974-1.235c0.511-0.662,0.766-1.423,0.766-2.282c0-1.271-0.403-2.247-1.208-2.928
		s-2.319-1.021-4.539-1.021H12.22L12.219,120.338L12.219,120.338z"/>
	<path fill="#377BA5" d="M42.593,104.386h32.603v8.404h-20.41v6.259h18.933v8.028H54.785v7.763h21.001v8.916H42.593V104.386z"/>
	<path fill="#377BA5" d="M82.419,104.386h11.36l14.824,21.781v-21.781h11.467v39.37h-11.467L93.86,122.139v21.617H82.42
		L82.419,104.386L82.419,104.386z"/>
	<path fill="#377BA5" d="M125.388,104.386h36.98v9.722h-12.407v29.648h-12.165v-29.648h-12.408V104.386z"/>
</g>
<g>
	<path fill="#F2F2F2" d="M219.221,130.731l11.575-0.725c0.25,1.88,0.761,3.312,1.531,4.297c1.253,1.594,3.043,2.391,5.371,2.391
		c1.736,0,3.075-0.407,4.015-1.223c0.939-0.814,1.41-1.759,1.41-2.833c0-1.021-0.448-1.935-1.343-2.739
		c-0.896-0.806-2.972-1.566-6.23-2.283c-5.335-1.198-9.14-2.793-11.414-4.778c-2.292-1.988-3.438-4.521-3.438-7.602
		c0-2.022,0.586-3.935,1.759-5.732c1.173-1.801,2.937-3.215,5.291-4.243c2.354-1.029,5.581-1.544,9.681-1.544
		c5.031,0,8.867,0.936,11.507,2.806c2.641,1.871,4.212,4.848,4.713,8.93l-11.467,0.671c-0.305-1.771-0.944-3.061-1.92-3.866
		c-0.976-0.806-2.323-1.208-4.042-1.208c-1.415,0-2.48,0.3-3.196,0.898c-0.716,0.602-1.074,1.33-1.074,2.189
		c0,0.626,0.295,1.189,0.886,1.69c0.573,0.521,1.934,1.003,4.082,1.45c5.317,1.146,9.126,2.306,11.427,3.479
		c2.301,1.173,3.975,2.628,5.022,4.363c1.047,1.736,1.571,3.68,1.571,5.827c0,2.525-0.698,4.854-2.095,6.982
		c-1.396,2.131-3.348,3.747-5.854,4.848c-2.507,1.103-5.667,1.652-9.48,1.652c-6.696,0-11.333-1.289-13.911-3.867
		C221.02,137.983,219.561,134.704,219.221,130.731z"/>
	<path fill="#F2F2F2" d="M258.295,104.386h36.979v9.722h-12.405v29.648h-12.166v-29.648h-12.408V104.386z"/>
	<path fill="#F2F2F2" d="M326.401,104.386h12.14v23.456c0,2.326-0.362,4.521-1.088,6.589c-0.726,2.065-1.863,3.874-3.41,5.421
		c-1.549,1.548-3.174,2.635-4.875,3.261c-2.363,0.876-5.201,1.315-8.514,1.315c-1.916,0-4.006-0.135-6.271-0.403
		s-4.157-0.8-5.68-1.597c-1.521-0.796-2.914-1.929-4.177-3.396c-1.262-1.467-2.126-2.979-2.591-4.536
		c-0.752-2.504-1.129-4.723-1.129-6.654v-23.456h12.139v24.015c0,2.146,0.596,3.824,1.786,5.031c1.19,1.208,2.843,1.811,4.955,1.811
		c2.095,0,3.737-0.594,4.929-1.783c1.189-1.189,1.785-2.875,1.785-5.059L326.401,104.386L326.401,104.386z"/>
	<path fill="#F2F2F2" d="M346.757,104.386h18.074c3.562,0,6.439,0.482,8.633,1.45c2.193,0.967,4.007,2.354,5.438,4.161
		c1.433,1.81,2.472,3.912,3.115,6.312s0.967,4.941,0.967,7.627c0,4.207-0.479,7.471-1.438,9.789s-2.287,4.261-3.987,5.827
		s-3.526,2.608-5.479,3.129c-2.666,0.716-5.084,1.074-7.25,1.074h-18.074v-39.37H346.757z M358.923,113.302v21.511h2.979
		c2.542,0,4.351-0.281,5.425-0.846c1.074-0.563,1.916-1.548,2.524-2.954c0.608-1.405,0.913-3.685,0.913-6.835
		c0-4.171-0.682-7.026-2.041-8.566s-3.616-2.31-6.768-2.31H358.923z"/>
	<path fill="#F2F2F2" d="M389.351,104.386h32.602v8.404h-20.41v6.259h18.935v8.028h-18.935v7.763h21.002v8.916h-33.192
		L389.351,104.386L389.351,104.386z"/>
	<path fill="#F2F2F2" d="M429.177,104.386h11.359l14.824,21.781v-21.781h11.467v39.37h-11.467l-14.744-21.617v21.617h-11.439
		V104.386L429.177,104.386z"/>
	<path fill="#F2F2F2" d="M472.144,104.386h36.98v9.722h-12.406v29.648h-12.166v-29.648h-12.408V104.386z"/>
</g>
</svg>
